<svg xmlns="http://www.w3.org/2000/svg" xmlns:xlink="http://www.w3.org/1999/xlink" width="251" height="63" viewBox="0 0 251 63">
    <defs>
        <path id="a" d="M0 44h73.052V.677H0z"/>
        <path id="c" d="M0 .812h15.167v15.167H0V.812z"/>
    </defs>
    <g fill="none" fill-rule="evenodd">
        <g transform="translate(0 18.188)">
            <mask id="b" fill="#fff">
                <use xlink:href="#a"/>
            </mask>
            <path fill="#9F53ED" d="M14.523 13.805c0-1.477 1.313-2.298 3.447-2.298 2.707 0 4.348 1.476 5.495 3.611l9.14-4.927V23.44c-5.164-7.13-18.082-5.89-18.082-9.634zm45.89 9.885c0 5.983-3.202 8.68-7.837 8.68-4.044 0-7.33-2.443-7.33-7.668V.687h-12.64v6.774C29.073 2.957 23.806.677 17.968.677 9.437.677 1.887 5.19 1.887 14.132c0 14.194 20.184 11.816 20.184 16.33 0 1.64-1.477 2.541-4.43 2.541-3.61 0-5.907-1.72-6.973-4.84L0 34.234C3.2 40.88 9.437 44 17.64 44c7.458 0 14.43-2.864 16.459-9.39C36.643 40.762 42.16 44 48.361 44c5.563 0 9.776-2.025 12.05-5.139v5.14h12.64V.686h-12.64V23.69z" mask="url(#b)"/>
        </g>
        <g transform="translate(99 -.812)">
            <mask id="d" fill="#fff">
                <use xlink:href="#c"/>
            </mask>
            <path fill="#9F53ED" d="M7.584 15.979c4.128 0 7.583-3.455 7.583-7.585 0-4.127-3.455-7.582-7.583-7.582C3.454.812 0 4.267 0 8.394c0 4.13 3.454 7.585 7.584 7.585" mask="url(#d)"/>
        </g>
        <path fill="#9F53ED" d="M228.813 50.209c-5.334 0-9.438-3.858-9.438-9.685 0-5.826 4.103-9.681 9.438-9.681 5.333 0 9.437 3.855 9.437 9.68 0 5.828-4.105 9.686-9.438 9.686zm-24.745-3.67V31.39h4.986a21.838 21.838 0 0 0-1.987 9.135c0 3.559.84 6.869 2.302 9.79-3.427-.09-5.302-.945-5.302-3.774zm-37.905 4.009c-5.656 0-9.754-3.851-9.754-10.002 0-6.147 4.098-9.998 9.754-9.998s9.754 3.85 9.754 9.998c0 6.15-4.097 10.002-9.753 10.002zm-26.193-5.095c-1.311 2.872-4.347 4.595-7.956 4.595-5.332 0-9.27-3.857-9.27-9.518 0-5.657 3.938-9.514 9.27-9.514 3.609 0 6.562 1.723 7.957 4.595l5.574-3.235a23.804 23.804 0 0 0-1.431 8.17c0 2.88.508 5.598 1.4 8.08l-5.543-3.173zm88.843-26.59c-6.317 0-11.964 2.606-15.927 6.827v-6.814h-8.819V6.89l-12.839 3.85v8.135h-15.31v5.03c-2.705-3.113-6.721-4.998-12.213-4.998-5.97 0-11.352 2.92-14.959 7.606-3.855-4.682-9.89-7.638-16.569-7.638-8.63 0-15.721 4.524-19.273 11.36v-11.36h-12.64v.038c-4.978.338-10 3.036-11.571 8.305v-8.343h-12.64v43.312h12.64v-19.38c0-7.788 6.46-10.14 11.57-9.732v29.112h12.64V50.827c3.553 6.837 10.644 11.36 19.275 11.36 6.727 0 12.699-2.936 16.539-7.642 3.606 4.708 9.001 7.643 14.987 7.643 5.492 0 9.508-1.885 12.213-5v5h12.297V31.39h3.015v15.15c0 11.985 4.878 17.035 21.656 15.324v-6.502c3.964 4.222 9.61 6.826 15.928 6.826 12.062 0 21.744-9.437 21.744-21.664 0-12.223-9.682-21.66-21.744-21.66z"/>
    </g>
</svg>
