<?xml version="1.0" encoding="utf-8"?>
<!-- Generator: Adobe Illustrator 22.1.0, SVG Export Plug-In . SVG Version: 6.00 Build 0)  -->
<svg version="1.0" id="Layer_1" xmlns="http://www.w3.org/2000/svg" xmlns:xlink="http://www.w3.org/1999/xlink" x="0px" y="0px"
	 viewBox="0 0 500 500" enable-background="new 0 0 500 500" xml:space="preserve">
<g>
	<linearGradient id="SVGID_1_" gradientUnits="userSpaceOnUse" x1="163.031" y1="364.446" x2="524.9146" y2="100.9004">
		<stop  offset="0" style="stop-color:#6C18C3"/>
		<stop  offset="1" style="stop-color:#9F53ED"/>
	</linearGradient>
	<path fill="url(#SVGID_1_)" d="M246.268,465.405L106.465,286.773V96.184l63.522-62.121H461.98c15.475,0,28.02,12.545,28.02,28.02
		v375.302c0,15.475-12.545,28.02-28.02,28.02H246.268z"/>
	<path fill="#E5D6FC" d="M254.427,278.24c77.52-24.699,108.372-74.789,97.491-99.487c-1.06-2.486-2.527-4.687-4.443-6.603
		c-5.787-5.788-26.369-20.367-41.287-38.708c-20.745-25.473-16.777-51.618-63.034-81.178
		c-44.148-28.212-122.878-28.25-170.124,19.35c-9.193,9.262-16.284,19.415-21.599,30.36c-3.928,0.1-8.383,0.697-13.336,2.103
		c-49.724,14.18-24.885,94.38,8.721,126.66c0.49,2.214,0.996,4.438,1.522,6.675c12.819,54.52,31.98,145.098,70.703,183.821
		c41.046,41.046,82.917,45.722,129.243,45.722c17.281,0,67.402,0,67.402,0C171.077,389.035,197.327,296.459,254.427,278.24z"/>
	<path fill="#D7C9F2" d="M34.559,195.056c-7.108-13.083-12.989-30.179-14.402-45.155c-0.288-3.048-0.614-23.25,16.641-27.494
		c13.45-2.636,24.068,0.071,29.502,7.374c7.082,9.518,9.819,28.053-2.004,43.647c-10.486,13.832-2.089,39.6-14.177,39.6
		C46.235,213.028,38.032,201.448,34.559,195.056z"/>
	<linearGradient id="SVGID_2_" gradientUnits="userSpaceOnUse" x1="317.2575" y1="188.0399" x2="210.5879" y2="411.0036">
		<stop  offset="0.0731" style="stop-color:#B7A6E0"/>
		<stop  offset="0.8548" style="stop-color:#E5D6FC"/>
	</linearGradient>
	<path fill="url(#SVGID_2_)" d="M315.686,466.956c0,0-50.121,0-67.402,0c-23.517,0-46.259-7.907-67.453-21.561
		c-23.639-24.413-33.8-32.414-42.591-65.942c-10.007-38.167-15.223-115.494,38.379-128.282
		c157.093-37.478,158.012-59.873,170.07-59.873c5.981,0,5.981,8.186,5.981,8.186c-6.762,25.908-38.767,59.805-98.244,78.755
		C197.327,296.459,173.936,391.418,315.686,466.956z"/>
</g>
</svg>
