<?xml version="1.0" encoding="utf-8"?>
<!-- Generator: Adobe Illustrator 22.1.0, SVG Export Plug-In . SVG Version: 6.00 Build 0)  -->
<svg version="1.0" id="Layer_1" xmlns="http://www.w3.org/2000/svg" xmlns:xlink="http://www.w3.org/1999/xlink" x="0px" y="0px"
	 viewBox="0 0 310 67.117" enable-background="new 0 0 310 67.117" xml:space="preserve">
<g>
	<g>
		<linearGradient id="SVGID_1_" gradientUnits="userSpaceOnUse" x1="24.5526" y1="48.084" x2="70.7899" y2="14.4111">
			<stop  offset="0" style="stop-color:#6C18C3"/>
			<stop  offset="1" style="stop-color:#9F53ED"/>
		</linearGradient>
		<path fill="url(#SVGID_1_)" d="M35.188,60.983L17.325,38.16V13.808l8.116-7.937h37.308c1.977,0,3.58,1.603,3.58,3.58v47.952
			c0,1.977-1.603,3.58-3.58,3.58H35.188z"/>
		<path fill="#E5D6FC" d="M36.23,37.07c9.905-3.156,13.847-9.556,12.456-12.711c-0.135-0.318-0.323-0.599-0.568-0.844
			c-0.739-0.739-3.369-2.602-5.275-4.946c-2.651-3.255-2.144-6.595-8.054-10.372c-5.641-3.605-15.7-3.61-21.736,2.472
			c-1.175,1.183-2.081,2.481-2.76,3.879c-0.502,0.013-1.071,0.089-1.704,0.269C2.237,16.629,5.41,26.876,9.704,31
			c0.063,0.283,0.127,0.567,0.194,0.853c1.638,6.966,4.086,18.539,9.034,23.487c5.244,5.244,10.594,5.842,16.513,5.842
			c2.208,0,8.612,0,8.612,0C25.581,51.226,28.935,39.397,36.23,37.07z"/>
		<path fill="#D7C9F2" d="M8.138,26.441c-0.908-1.672-1.66-3.856-1.84-5.769c-0.037-0.389-0.078-2.971,2.126-3.513
			c1.718-0.337,3.075,0.009,3.769,0.942c0.905,1.216,1.255,3.584-0.256,5.577c-1.34,1.767-0.267,5.06-1.811,5.06
			C9.63,28.738,8.582,27.258,8.138,26.441z"/>
		<linearGradient id="SVGID_2_" gradientUnits="userSpaceOnUse" x1="44.2579" y1="25.5448" x2="30.6288" y2="54.0326">
			<stop  offset="0.0731" style="stop-color:#B7A6E0"/>
			<stop  offset="0.8548" style="stop-color:#E5D6FC"/>
		</linearGradient>
		<path fill="url(#SVGID_2_)" d="M44.057,61.182c0,0-6.404,0-8.612,0c-3.005,0-5.911-1.01-8.618-2.755
			c-3.02-3.119-4.319-4.141-5.442-8.425c-1.279-4.876-1.945-14.757,4.904-16.39c20.072-4.789,20.189-7.65,21.73-7.65
			c0.764,0,0.764,1.046,0.764,1.046c-0.864,3.31-4.953,7.641-12.552,10.062C28.935,39.397,25.946,51.53,44.057,61.182z"/>
	</g>
	<g>
		<path fill="#8734DF" d="M135.864,43.31c0,5.322-2.848,7.721-6.971,7.721c-3.598,0-6.521-2.173-6.521-6.82V22.849h-11.244v6.026
			c-3.14-4.006-7.825-6.035-13.019-6.035c-7.59,0-14.305,4.014-14.305,11.969c0,12.626,17.954,10.51,17.954,14.524
			c0,1.459-1.313,2.261-3.941,2.261c-3.211,0-5.255-1.53-6.204-4.306l-9.488,5.402c2.847,5.91,8.394,8.685,15.692,8.685
			c6.634,0,12.836-2.548,14.64-8.352c2.263,5.472,7.17,8.352,12.687,8.352c4.947,0,8.695-1.8,10.719-4.571v4.571h11.244V22.849
			h-11.244V43.31z M95.044,34.518c0-1.313,1.168-2.044,3.066-2.044c2.408,0,3.868,1.313,4.889,3.212l8.129-4.383v11.785
			C106.535,36.744,95.044,37.847,95.044,34.518z"/>
		<path fill="#8734DF" d="M176.934,19.55c3.672,0,6.746-3.073,6.746-6.747c0-3.671-3.073-6.744-6.746-6.744
			c-3.674,0-6.747,3.073-6.747,6.744C170.187,16.477,173.26,19.55,176.934,19.55z"/>
		<path fill="#8734DF" d="M285.658,22.839c-5.619,0-10.642,2.317-14.168,6.072v-6.061h-7.843V12.188l-11.421,3.426v7.236h-2.681
			h-3.41h-7.527v4.475c-2.406-2.77-5.979-4.447-10.864-4.447c-5.31,0-10.097,2.598-13.305,6.766
			c-3.429-4.165-8.797-6.795-14.739-6.795c-7.677,0-13.985,4.024-17.144,10.105V22.849h-11.243v0.034
			c-4.428,0.301-8.894,2.701-10.293,7.387v-7.422h-11.243v38.527h11.243V44.137c0-6.928,5.748-9.02,10.293-8.657v25.896h11.243
			V51.27c3.159,6.081,9.468,10.106,17.144,10.106c5.984,0,11.296-2.613,14.712-6.799c3.208,4.189,8.007,6.799,13.332,6.799
			c4.885,0,8.458-1.677,10.864-4.447v4.447h10.938V33.981h2.681v13.476c0,10.661,4.34,15.153,19.264,13.631v-5.784
			c3.525,3.755,8.549,6.072,14.168,6.072c10.729,0,19.342-8.395,19.342-19.27C305,31.233,296.388,22.839,285.658,22.839z
			 M206.632,46.49c-1.167,2.555-3.868,4.088-7.078,4.088c-4.743,0-8.245-3.431-8.245-8.467c0-5.032,3.502-8.464,8.245-8.464
			c3.211,0,5.837,1.533,7.078,4.088l4.958-2.877c-0.813,2.23-1.273,4.675-1.273,7.267c0,2.562,0.451,4.979,1.246,7.188
			L206.632,46.49z M229.931,51.022c-5.031,0-8.677-3.426-8.677-8.897c0-5.468,3.646-8.894,8.677-8.894s8.676,3.426,8.676,8.894
			C238.607,47.596,234.962,51.022,229.931,51.022z M263.647,47.457V33.981h4.435c-1.124,2.455-1.767,5.195-1.767,8.125
			c0,3.165,0.747,6.109,2.046,8.709C265.315,50.733,263.647,49.973,263.647,47.457z M285.658,50.72
			c-4.745,0-8.394-3.432-8.394-8.614c0-5.182,3.649-8.611,8.394-8.611c4.744,0,8.394,3.429,8.394,8.611
			C294.052,47.288,290.402,50.72,285.658,50.72z"/>
	</g>
</g>
</svg>
