<?xml version="1.0" encoding="utf-8"?>
<!-- Generator: Adobe Illustrator 19.1.0, SVG Export Plug-In . SVG Version: 6.00 Build 0)  -->
<svg version="1.0" id="Layer_1" xmlns="http://www.w3.org/2000/svg" xmlns:xlink="http://www.w3.org/1999/xlink" x="0px" y="0px"
	 viewBox="0 0 325.4 325.4" style="enable-background:new 0 0 325.4 325.4;" xml:space="preserve">
<style type="text/css">
	.st0{fill:#FAAE8A;}
	.st1{fill:#DC8574;}
	.st2{fill:#F56462;}
	.st3{fill:#1D1D1B;}
	.st4{fill:none;stroke:#1D1D1B;stroke-width:7.4032;stroke-linecap:round;stroke-miterlimit:10;}
</style>
<g>
	<circle class="st0" cx="162.7" cy="162.7" r="162.7"/>
	<path class="st1" d="M221.9,294.1c-11.3,5.1-23.3,8.8-35.9,10.8c-1.7,0.3-3.5-0.7-4.1-2.4c-3.9-10.7-8.4-27-37.2-42.3
		c-20.7-11-23.3-34.4-13.3-48.7c7.1-10.2,23.1-17.6,54.3-17.6c-28,0-54.7,30.7-32.3,40.7c52,23.4,64.4,47.5,67.3,57L221.9,294.1z"/>
	<path class="st2" d="M86.6,285.8c2.7,2,6.5-0.3,5.9-3.6c-7.8-41.3-41.7-84.2-41.7-119.7c0-49,28.6-80.5,79-80.5
		c25.9,0,56.3,19,65.5,44.8c4.8,13.5,17.3,22.1,28.3,26.5c1,0.6,1.9,1.1,2.7,1.6c3.1,1.9,4.2,5.7,2.7,9
		c-4.6,10.3-16.4,26.3-43.2,30.1c-30.5,4.4-54.7,30.7-32.3,40.7c52.1,23.3,64.4,47.5,67.3,57c0.7,2.1,3.1,3.2,5.1,2.2
		c51.2-24.7,85.7-78.5,82.1-140C303.9,85,242,22.3,173.1,17.6C88,11.6,17.2,78.9,17.2,162.7C17.2,226.8,67.6,271.3,86.6,285.8z"/>
	<g>
		<path class="st3" d="M107.9,167c0,0-0.2,0.1-0.6,0.3c-0.5,0.3-1.2,0.6-2,1c-1.7,0.7-4.4,1.5-7.6,1.4l-0.2,0l-0.2,0l0,0l-0.1,0
			l-0.2,0l-0.5,0c-0.3,0-0.6,0-1.2-0.1c-0.5-0.1-0.9-0.2-1.4-0.3c-0.4-0.1-0.9-0.2-1.3-0.4c-1.7-0.6-3.5-1.4-5.1-2.6
			c-3.2-2.3-5.7-5.8-6.7-9.8c-0.5-2-0.7-4-0.5-6l0.1-0.6c0-0.2,0.1-0.5,0.1-0.7c0.1-0.5,0.2-1,0.3-1.5c0.1-0.5,0.3-0.9,0.4-1.4
			c0.2-0.4,0.4-0.9,0.5-1.3c0.8-1.7,1.8-3.2,2.9-4.4c1.1-1.2,2.4-2.2,3.6-3c0.6-0.3,1.2-0.7,1.8-0.9c0.3-0.1,0.6-0.3,0.9-0.4
			c0.3-0.1,0.6-0.2,0.9-0.3c0.6-0.2,1.1-0.3,1.6-0.4c0.5-0.1,0.9-0.2,1.4-0.2c0.8-0.1,1.5-0.1,1.9-0.1c0.4,0,0.7,0,0.7,0
			c0.6,0,1.1,0.5,1.1,1.1c0,0.6-0.4,1.1-1,1.1l-0.1,0c0,0-0.2,0-0.6,0.1c-0.4,0-0.9,0.1-1.6,0.2c-0.3,0.1-0.7,0.1-1.1,0.3
			c-0.4,0.1-0.8,0.3-1.3,0.5c-0.2,0.1-0.5,0.2-0.7,0.3c-0.2,0.1-0.5,0.3-0.7,0.4c-0.5,0.2-0.9,0.6-1.4,0.9c-0.9,0.7-1.9,1.6-2.7,2.7
			c-0.8,1.1-1.5,2.3-2,3.7c-0.1,0.3-0.2,0.7-0.3,1c-0.1,0.4-0.1,0.7-0.2,1.1c-0.1,0.4-0.1,0.7-0.1,1c0,0.2,0,0.3,0,0.5l0,0.6
			c0,1.5,0.2,3,0.8,4.4c1,2.8,3,5.1,5.3,6.4c1.1,0.7,2.4,1.1,3.5,1.4c0.3,0.1,0.6,0.1,0.9,0.2c0.3,0,0.5,0,0.7,0.1
			c0.2,0,0.6,0,0.9,0l0.5,0l0.3,0l0.1,0l0,0c0.2,0-0.2,0-0.2,0l0,0l0.1,0c2.1-0.1,3.7-0.8,4.7-1.3c0.5-0.3,0.9-0.5,1.1-0.7
			c0.3-0.2,0.5-0.3,0.5-0.3l0,0c1.7-1.2,4-0.8,5.2,0.9c1.2,1.7,0.8,4-0.9,5.2C108,166.8,107.9,166.9,107.9,167z"/>
	</g>
	<path class="st4" d="M86.6,285.8c2.7,2,6.5-0.3,5.9-3.6c-7.8-41.3-41.7-84.2-41.7-119.7c0-49,28.6-80.5,79-80.5
		c25.9,0,56.3,19,65.5,44.8c4.8,13.5,17.3,22.1,28.3,26.5c1,0.6,1.9,1.1,2.7,1.6c3.1,1.9,4.2,5.7,2.7,9
		c-4.6,10.3-16.4,26.3-43.2,30.1c-30.5,4.4-54.7,30.7-32.3,40.7c52.1,23.3,64.4,47.5,67.3,57c0.7,2.1,3.1,3.2,5.1,2.2
		c51.2-24.7,85.7-78.5,82.1-140C303.9,85,242,22.3,173.1,17.6C88,11.6,17.2,78.9,17.2,162.7C17.2,226.8,67.6,271.3,86.6,285.8z"/>
</g>
</svg>
